<?xml version="1.0" encoding="UTF-8"?>
<svg id="Layer_2" data-name="Layer 2" xmlns="http://www.w3.org/2000/svg" viewBox="0 0 87.49 132.24">
  <g id="Layer_1-2" data-name="Layer 1">
    <g>
      <path d="M0,92.89c0-6.11,.74-11.64,2.23-16.62,1.49-4.97,3.68-9.22,6.58-12.74,2.9-3.52,6.5-6.24,10.8-8.16,4.3-1.92,9.32-2.88,15.03-2.88,3.44,0,6.79,.63,10.04,1.88,3.25,1.25,6.22,3.09,8.93,5.52,2.7,2.43,4.99,5.42,6.87,8.98,1.88,3.56,3.17,7.61,3.88,12.15V45.68c0-1.96-.06-3.66-.18-5.11-.12-1.45-.43-2.68-.94-3.7-.51-1.02-1.27-1.8-2.29-2.35-1.02-.55-2.39-.9-4.11-1.06v-1.17c3.44-.31,7.28-.94,11.51-1.88s7.99-2.11,11.27-3.52V116.73c0,2.04,.12,3.92,.35,5.64,.23,1.72,.63,3.21,1.17,4.46,.55,1.25,1.33,2.25,2.35,2.99,1.02,.75,2.35,1.12,3.99,1.12v1.29c-4.07,0-7.56-.31-10.45-.94-2.9-.63-5.28-1.66-7.16-3.11-1.88-1.45-3.27-3.41-4.17-5.87-.9-2.47-1.35-5.58-1.35-9.34v-7.28c-.7,3.68-1.96,7.13-3.76,10.33-1.8,3.21-4.03,6.03-6.69,8.46-2.66,2.43-5.66,4.35-8.98,5.75-3.33,1.41-6.83,2.08-10.51,2-5.09,0-9.75-.92-13.98-2.76-4.23-1.84-7.85-4.46-10.86-7.87-3.01-3.41-5.36-7.53-7.05-12.39-1.68-4.85-2.52-10.29-2.52-16.32Zm15.03,0c0,5.33,.33,10.32,1,14.97,.66,4.66,1.76,8.69,3.29,12.1,1.53,3.41,3.52,6.09,5.99,8.04,2.47,1.96,5.5,2.94,9.1,2.94,3.05,.08,5.97-.37,8.75-1.35,2.78-.98,5.34-2.35,7.69-4.11,2.35-1.76,4.42-3.85,6.22-6.28,1.8-2.43,3.25-5.05,4.35-7.87,1.49-3.37,2.35-6.75,2.58-10.16,.24-3.41,.35-6.32,.35-8.75,0-1.1-.06-2.35-.18-3.76-.12-1.41-.28-2.86-.47-4.34-.2-1.49-.43-2.97-.7-4.46-.28-1.49-.65-2.86-1.12-4.11-1.1-3.52-2.57-6.65-4.4-9.39-1.84-2.74-3.97-5.05-6.4-6.93-2.43-1.88-5.05-3.31-7.87-4.29-2.82-.98-5.68-1.47-8.57-1.47-4.23,0-7.63,1.25-10.22,3.76-2.58,2.51-4.58,5.68-5.99,9.51-1.41,3.84-2.33,8.06-2.76,12.68-.43,4.62-.65,9.04-.65,13.27Z"/>
      <path d="M19.81,104.4c1.72,0,3.09-.25,4.11-.76,1.02-.51,1.8-1.23,2.35-2.17,.55-.94,.9-2.09,1.06-3.46,.16-1.37,.23-2.88,.23-4.52V28.77c0-.55,.04-1.1,.12-1.64h-7.87v-1.29h8.1c.47-3.37,1.45-6.62,2.94-9.75,1.49-3.13,3.54-5.89,6.17-8.28,2.62-2.39,5.85-4.29,9.69-5.7,3.84-1.41,8.3-2.11,13.39-2.11,4.77,0,10.29,.78,16.56,2.35l-4.93,19.02h-.94c-.24-2.43-.7-4.81-1.41-7.16-.7-2.35-1.66-4.44-2.88-6.28-1.21-1.84-2.78-3.31-4.7-4.4-1.92-1.1-4.25-1.64-6.99-1.64-2.98,0-5.58,.57-7.81,1.7-2.23,1.14-4.09,2.58-5.58,4.35-1.49,1.76-2.57,3.66-3.23,5.7-.67,2.04-.9,3.93-.7,5.7,.19,1.76,.84,3.27,1.94,4.52,1.1,1.25,2.7,1.92,4.81,2,2.43-.16,4.33-.08,5.7,.24,1.37,.31,2.45,.86,3.23,1.64,1.25,1.25,1.92,2.56,2,3.93,.08,1.37-.22,2.78-.88,4.23-.67,1.45-1.57,2.94-2.7,4.46-1.14,1.53-2.31,3.15-3.52,4.87-1.21,1.72-2.33,3.52-3.35,5.4-1.02,1.88-1.72,3.84-2.11,5.87v36.64c0,1.72,.08,3.27,.23,4.64,.16,1.37,.51,2.55,1.06,3.52,.55,.98,1.33,1.74,2.35,2.29,1.02,.55,2.39,.82,4.11,.82v1.17c-3.29-.16-6.03-.27-8.22-.35-2.19-.08-4.27-.12-6.22-.12-2.27,0-4.6,.06-6.99,.18-2.39,.12-5.42,.22-9.1,.29v-1.17Zm22.78-52.26c.86-2.11,1.96-4.11,3.29-5.99,1.33-1.88,2.6-3.66,3.82-5.34,1.21-1.68,2.25-3.27,3.11-4.76,.86-1.49,1.25-2.9,1.17-4.23-.08-1.25-.45-2.21-1.12-2.88-.67-.66-1.47-1.13-2.41-1.41-.94-.27-1.98-.41-3.11-.41h-3.23c-.24-.08-.49-.12-.76-.12s-.53-.04-.76-.12v25.25Z"/>
    </g>
  </g>
</svg>