<?xml version="1.0" encoding="UTF-8"?>
<svg id="Layer_2" data-name="Layer 2" xmlns="http://www.w3.org/2000/svg" viewBox="0 0 293.59 60.63">
  <g id="Layer_1-2" data-name="Layer 1">
    <g>
      <g>
        <path d="M0,42.59c0-2.8,.34-5.34,1.02-7.62,.68-2.28,1.69-4.23,3.02-5.84,1.33-1.62,2.98-2.86,4.95-3.74,1.97-.88,4.27-1.32,6.89-1.32,1.58,0,3.11,.29,4.6,.86,1.49,.57,2.85,1.42,4.09,2.53,1.24,1.11,2.29,2.49,3.15,4.12,.86,1.63,1.45,3.49,1.78,5.57V20.95c0-.9-.03-1.68-.08-2.34-.05-.66-.2-1.23-.43-1.7-.23-.47-.58-.83-1.05-1.08-.47-.25-1.1-.41-1.88-.48v-.54c1.58-.14,3.34-.43,5.28-.86s3.66-.97,5.17-1.62V53.52c0,.93,.05,1.8,.16,2.58,.11,.79,.29,1.47,.54,2.05,.25,.57,.61,1.03,1.08,1.37,.47,.34,1.08,.51,1.83,.51v.59c-1.87,0-3.46-.14-4.79-.43-1.33-.29-2.42-.76-3.28-1.43-.86-.66-1.5-1.56-1.91-2.69-.41-1.13-.62-2.56-.62-4.28v-3.34c-.32,1.69-.9,3.27-1.72,4.74-.83,1.47-1.85,2.76-3.07,3.88-1.22,1.11-2.59,1.99-4.12,2.64-1.53,.65-3.13,.95-4.82,.92-2.33,0-4.47-.42-6.41-1.27-1.94-.84-3.6-2.05-4.98-3.61-1.38-1.56-2.46-3.45-3.23-5.68-.77-2.23-1.16-4.72-1.16-7.48Zm6.89,0c0,2.44,.15,4.73,.46,6.87,.3,2.14,.81,3.98,1.51,5.55,.7,1.56,1.62,2.79,2.75,3.69,1.13,.9,2.52,1.35,4.17,1.35,1.4,.04,2.74-.17,4.01-.62,1.27-.45,2.45-1.08,3.53-1.88,1.08-.81,2.03-1.77,2.85-2.88,.83-1.11,1.49-2.32,1.99-3.61,.68-1.54,1.08-3.1,1.18-4.66,.11-1.56,.16-2.9,.16-4.01,0-.5-.03-1.08-.08-1.72-.05-.65-.13-1.31-.22-1.99-.09-.68-.2-1.36-.32-2.05-.13-.68-.3-1.31-.51-1.88-.5-1.62-1.18-3.05-2.02-4.31-.84-1.26-1.82-2.32-2.93-3.18-1.11-.86-2.32-1.52-3.61-1.97-1.29-.45-2.6-.67-3.93-.67-1.94,0-3.5,.57-4.68,1.72-1.18,1.15-2.1,2.6-2.75,4.36-.65,1.76-1.07,3.7-1.27,5.82-.2,2.12-.3,4.15-.3,6.08Z"/>
        <path d="M9.08,47.87c.79,0,1.42-.12,1.88-.35,.47-.23,.83-.57,1.08-1,.25-.43,.41-.96,.48-1.59,.07-.63,.11-1.32,.11-2.07V13.19c0-.25,.02-.5,.05-.75h-3.61v-.59h3.72c.22-1.54,.66-3.03,1.35-4.47,.68-1.44,1.62-2.7,2.83-3.8,1.2-1.09,2.68-1.97,4.44-2.61,1.76-.65,3.8-.97,6.14-.97,2.19,0,4.72,.36,7.59,1.08l-2.26,8.72h-.43c-.11-1.11-.32-2.21-.65-3.28-.32-1.08-.76-2.04-1.32-2.88-.56-.84-1.27-1.52-2.15-2.02-.88-.5-1.95-.75-3.2-.75-1.36,0-2.56,.26-3.58,.78-1.02,.52-1.88,1.18-2.56,1.99-.68,.81-1.18,1.68-1.48,2.61-.31,.93-.41,1.8-.32,2.61,.09,.81,.39,1.5,.89,2.07,.5,.57,1.24,.88,2.21,.92,1.11-.07,1.98-.04,2.61,.11,.63,.14,1.12,.4,1.48,.75,.57,.57,.88,1.18,.92,1.8,.04,.63-.1,1.27-.4,1.94-.31,.66-.72,1.35-1.24,2.05-.52,.7-1.06,1.45-1.62,2.23-.56,.79-1.07,1.62-1.53,2.48-.47,.86-.79,1.76-.97,2.69v16.8c0,.79,.04,1.5,.11,2.13,.07,.63,.23,1.17,.48,1.62,.25,.45,.61,.8,1.08,1.05,.47,.25,1.09,.38,1.88,.38v.54c-1.51-.07-2.76-.13-3.77-.16-1.01-.04-1.96-.05-2.85-.05-1.04,0-2.11,.03-3.2,.08-1.1,.05-2.49,.1-4.17,.13v-.54Zm10.45-23.96c.39-.97,.9-1.88,1.51-2.75,.61-.86,1.19-1.68,1.75-2.45,.56-.77,1.03-1.5,1.43-2.18,.39-.68,.57-1.33,.54-1.94-.04-.57-.21-1.01-.51-1.32-.31-.3-.67-.52-1.1-.65-.43-.13-.91-.19-1.43-.19h-1.48c-.11-.04-.22-.05-.35-.05s-.24-.02-.35-.05v11.58Z"/>
      </g>
      <g>
        <path d="M65.5,17.18c2.77,.19,5.44,1.26,7.22,3.13,7.76,8.2,4.51,25.85-9.72,26.8-.89,.06-1.75,.05-2.67-.04-1.71-.16-3.39-.53-4.36-.53-1.25,0-1.82,.61-4.81,.61,1.28-.5,2.64-1.02,2.64-5.33V22.8c0-4.31-1.36-4.83-2.64-5.33,2.99,0,3.57,.61,4.81,.61,2.81-.02,3.36-1.04,9.54-.89Zm-5.82,1.68c-.71,.3-1.65,.77-1.65,3.93v19.03c0,3.02,1.26,4.67,4.01,4.67,10.34,0,12.77-17,6.47-24.91-1.48-1.86-3.77-3.24-6.28-3.23-.84,0-1.69,.16-2.56,.5Z"/>
        <path d="M94.02,29.59c-.86,1.76-1.3,4.68-3.43,7.59-1.46,1.99-3.87,3.78-7.11,4.76,2.01,2.92,5.56,4.63,9.78,2.7-2.48,2.45-5.94,3.19-9.02,2.19-3.77-1.18-6.53-4.93-6.53-9.37,0-2.58,.93-4.92,2.44-6.66,1.64-1.85,3.72-3.14,6.56-3.14s5.34,1.83,7.31,1.94Zm-12.24,7.86c.15,1.24,.55,2.46,1.14,3.57,1.57-.91,4.22-3,5.26-6.73,.74-2.65,1.31-5.79-1.99-5.79-2.99,0-5.18,2.8-4.42,8.95Z"/>
        <path d="M111.67,28.29c-.97,2.04-.11,4.72-3.94,6.5,.79-3.19-.35-6.64-3.86-6.87-3.21-.27-5.86,1.88-5.05,4.1,.72,1.96,3.07,2.15,4.98,2.69,2.73,.76,5.18,1.6,6.36,3.2,1.92,2.52,.59,6.69-2.19,8.28-1.19,.81-2.82,1.34-4.84,1.34-3.52-.05-4.76-1.3-8.64-1.07,.97-2.04,.11-4.72,3.94-6.5-.79,3.19,.35,6.64,3.86,6.87,3.5,.26,5.86-1.85,5.12-4.09-.48-1.52-1.49-2.16-5.05-3.14-4.1-1.13-6.74-2.75-6.92-6.08-.12-2.09,1.02-4.02,3.27-5.27,1.27-.7,2.67-1.02,4.33-1.02,3.52,.05,4.76,1.3,8.64,1.07Z"/>
        <path d="M119.06,22.8v10.61c.39-.97,.92-1.92,1.57-2.78,1.58-2.08,3.91-3.67,6.85-3.67,1.92,0,3.43,.64,4.45,1.69,1.02,1.04,1.53,2.46,1.53,3.97,0,2.69-.67,4.6-2.26,6.24-1.59,1.64-3.04,3.06-3.04,4.82,.03,2.31,2.22,3.05,3.68,3.05-3.88,1.31-7.49,.07-7.49-3.05,0-6.53,8.27-7.09,8.27-11.06,0-1.31-1.34-2.2-5.13-2.2-4.41,.09-8.13,2.19-8.42,7.02v4.39c0,4.31,1.36,4.83,2.64,5.33-2.16,0-3.45-.61-4.7-.61s-1.82,.61-4.81,.61c1.28-.5,2.64-1.02,2.64-5.33v-15.04c0-4.31-1.36-4.83-2.64-5.33,2.49,.02,6.88-1.62,6.88-3.99v5.33Z"/>
        <path d="M150.65,29.59c-.86,1.76-1.3,4.68-3.43,7.59-1.46,1.99-3.87,3.78-7.11,4.76,2.01,2.92,5.56,4.63,9.78,2.7-2.48,2.45-5.94,3.19-9.02,2.19-3.77-1.18-6.53-4.93-6.53-9.37,0-2.58,.93-4.92,2.44-6.66,1.64-1.85,3.72-3.14,6.56-3.14s5.34,1.83,7.31,1.94Zm-12.24,7.86c.15,1.24,.55,2.46,1.14,3.57,1.57-.91,4.22-3,5.26-6.73,.74-2.65,1.31-5.79-1.99-5.79-2.99,0-5.18,2.8-4.42,8.95Zm1.44-12.92c1.4,.04,3.15-1.82,3.5-3.13,.72,.15,2.03,.1,2.62-.26-1.1,2.45-3.13,4.17-6.12,3.39Z"/>
        <path d="M178.42,24.86c-5.45-1.46-4.91-6.54-11.54-6.54h-2.33c-2.42,0-2.48,1.73-2.48,3.14v10.79c1.56-1.09,1.61-3.67,5.21-3.14,2.23,.33,3.96,1.79,5.75,2.99,1.82,1.22,3.32,1.99,4.56,.53-.17,1.86-1.59,2.66-2.66,2.91-3.38,.79-8.36-4.31-12.87-2.65v7.84c0,.71,0,1.42,.03,2.13,.2,3.38,1.44,3.86,2.61,4.31-2.16,0-3.45-.61-4.7-.61s-1.82,.61-4.81,.61c1.14-.44,2.35-.91,2.59-4.1,.06-.82,.04-1.65,.04-2.47V22.8c0-4.3-1.36-4.85-2.64-5.33h11.98c2.34,0,8.63,.97,10.85-.37-1.04,1.82-.61,5.38,.39,7.76Z"/>
        <path d="M196.52,34.69v7.14c0,4.31,1.36,4.83,2.64,5.33-3.82,0-5.95-.48-6.63-3.07-.97,1.98-3.14,3.41-6.07,3.41-3.29,.04-6.81-1.35-6.81-4.91,0-4.03,3.32-4.96,6.45-5.56,2.13-.41,6.09-.64,6.09-3.79-.5-3.73-2.94-5.75-6.04-4.5-3.26,1.32-3.27,4.95-1.52,7.73-4.19-.49-4.22-3.31-5.78-4.94,3.76-.99,4.54-2.56,7.87-3.71,.97-.3,1.95-.47,2.89-.48,3.71-.05,6.9,2.23,6.9,7.36Zm-9.61,4.02c-1.58,1.02-2.18,2.17-2.18,3.97,0,4.82,7.55,4.27,7.55-1.52v-5.63c-1.14,1.76-3.72,2.11-5.37,3.17Z"/>
        <path d="M217.39,28.29c-.97,2.04-.11,4.72-3.94,6.5,.79-3.19-.35-6.64-3.86-6.87-3.21-.27-5.86,1.88-5.05,4.1,.72,1.96,3.07,2.15,4.98,2.69,2.73,.76,5.18,1.6,6.36,3.2,1.92,2.52,.59,6.69-2.19,8.28-1.19,.81-2.82,1.34-4.84,1.34-3.52-.05-4.76-1.3-8.64-1.07,.97-2.04,.11-4.72,3.94-6.5-.79,3.19,.35,6.64,3.86,6.87,3.5,.26,5.86-1.85,5.12-4.09-.48-1.52-1.49-2.16-5.05-3.14-4.1-1.13-6.74-2.75-6.92-6.08-.12-2.09,1.02-4.02,3.27-5.27,1.27-.7,2.67-1.02,4.33-1.02,3.52,.05,4.76,1.3,8.64,1.07Z"/>
        <path d="M224.78,22.8v10.61c.39-.97,.92-1.92,1.57-2.78,1.58-2.08,3.91-3.67,6.85-3.67,1.92,0,3.43,.64,4.45,1.69,1.02,1.04,1.53,2.46,1.53,3.97,0,2.69-.67,4.6-2.26,6.24-1.59,1.64-3.04,3.06-3.04,4.82,.03,2.31,2.22,3.05,3.68,3.05-3.88,1.31-7.49,.07-7.49-3.05,0-6.53,8.27-7.09,8.27-11.06,0-1.31-1.34-2.2-5.13-2.2-4.41,.09-8.13,2.19-8.42,7.02v4.39c0,4.31,1.36,4.83,2.64,5.33-2.16,0-3.45-.61-4.7-.61s-1.82,.61-4.81,.61c1.28-.5,2.64-1.02,2.64-5.33v-15.04c0-4.31-1.36-4.83-2.64-5.33,2.49,.02,6.88-1.62,6.88-3.99v5.33Z"/>
        <path d="M247.11,32.98v8.85c0,4.31,1.36,4.83,2.64,5.33-2.16,0-3.45-.61-4.7-.61s-1.82,.61-4.81,.61c1.28-.5,2.64-1.02,2.64-5.33v-4.87c0-4.31-1.36-4.83-2.64-5.33,2.49,.02,6.88-1.62,6.88-3.99v5.33Zm-1.42-10.1c.84,.41,1.42,1.27,1.42,2.26,0,1.39-1.12,2.51-2.51,2.51s-2.51-1.12-2.51-2.51c0-1.04,.63-1.93,1.53-2.31,.3-.12,.62-.18,.93-.19,.4,0,.8,.07,1.15,.24Z"/>
        <path d="M271.86,37.41c0,5.38-4.89,9.75-10.91,9.75s-10.91-4.37-10.91-9.75,4.89-9.75,10.91-9.75,10.91,4.37,10.91,9.75Zm-15.46-7.91s0,0-.01,0c-2.8,1.62-3.03,6.47-.53,10.83,0,0,0,.01,0,.02,2.51,4.36,6.82,6.58,9.62,4.98,0,0,0,0,.01,0,2.8-1.62,3.04-6.47,.53-10.83,0,0,0-.01-.01-.02-1.96-3.39-5-5.5-7.58-5.5-.73,0-1.43,.17-2.05,.52Z"/>
        <path d="M292.07,28.65c1.02,1.04,1.53,2.46,1.53,3.97,0,2.69-.67,4.6-2.26,6.24-1.59,1.64-3.04,3.06-3.04,4.82,.03,2.31,2.22,3.05,3.68,3.05-3.88,1.31-7.49,.07-7.49-3.05,0-6.53,8.27-7.09,8.27-11.06,0-1.31-1.34-2.2-5.13-2.2-4.41,.09-8.13,2.19-8.42,7.02v4.39c0,4.31,1.36,4.83,2.64,5.33-2.16,0-3.45-.61-4.7-.61s-1.82,.61-4.81,.61c1.28-.5,2.64-1.02,2.64-5.33v-4.87c0-4.31-1.36-4.83-2.64-5.33,2.49,.02,6.88-1.62,6.88-3.99v5.76c.39-.97,.92-1.92,1.57-2.78,1.58-2.08,3.91-3.67,6.85-3.67,1.92,0,3.43,.64,4.45,1.69Z"/>
      </g>
    </g>
  </g>
</svg>